<?xml version="1.0" ?><svg viewBox="0 0 32 32" xmlns="http://www.w3.org/2000/svg"><defs><style>.cls-1{fill:none;}</style></defs><title/><g data-name="Layer 2" id="Layer_2"><path d="M26,27H6a3,3,0,0,1-3-3V12A3,3,0,0,1,6,9h4.22l.43-1.73A3,3,0,0,1,13.56,5h4.88a3,3,0,0,1,2.91,2.27L21.78,9H26a3,3,0,0,1,3,3V24A3,3,0,0,1,26,27ZM6,11a1,1,0,0,0-1,1V24a1,1,0,0,0,1,1H26a1,1,0,0,0,1-1V12a1,1,0,0,0-1-1H21a1,1,0,0,1-1-.76l-.62-2.49a1,1,0,0,0-1-.75H13.56a1,1,0,0,0-1,.75L12,10.24A1,1,0,0,1,11,11Z"/><path d="M16,23a5,5,0,1,1,5-5A5,5,0,0,1,16,23Zm0-8a3,3,0,1,0,3,3A3,3,0,0,0,16,15Z"/><path d="M24,15H23a1,1,0,0,1,0-2h1a1,1,0,0,1,0,2Z"/></g><g id="frame"><rect class="cls-1" height="32" width="32"/></g></svg>